<svg id="SvgjsSvg1176" width="594" height="310" xmlns="http://www.w3.org/2000/svg" version="1.1" xmlns:xlink="http://www.w3.org/1999/xlink" xmlns:svgjs="http://svgjs.com/svgjs"><defs id="SvgjsDefs1177"><marker id="SvgjsMarker1230" markerWidth="14" markerHeight="12" refX="16" refY="6" viewBox="0 0 14 12" orient="auto" markerUnits="userSpaceOnUse" stroke-dasharray="0,0"><path id="SvgjsPath1231" d="M1,1 L14,6 L1,11L1,1" fill="#ffffff" stroke="#323232" stroke-width="2"></path></marker><marker id="SvgjsMarker1234" markerWidth="14" markerHeight="12" refX="16" refY="6" viewBox="0 0 14 12" orient="auto" markerUnits="userSpaceOnUse" stroke-dasharray="0,0"><path id="SvgjsPath1235" d="M1,1 L14,6 L1,11L1,1" fill="#ffffff" stroke="#323232" stroke-width="2"></path></marker></defs><g id="SvgjsG1178" transform="translate(197,25)"><path id="SvgjsPath1179" d="M 0 4Q 0 0 4 0L 196 0Q 200 0 200 4L 200 96Q 200 100 196 100L 4 100Q 0 100 0 96Z" stroke="rgba(50,50,50,1)" stroke-width="2" fill-opacity="1" fill="#ffffff"></path><path id="SvgjsPath1180" d="M 0 30L 200 30M 0 60L 200 60" stroke="rgba(50,50,50,1)" stroke-width="2" fill="none"></path><path id="SvgjsPath1181" d="M 0 0L 200 0L 200 100L 0 100Z" stroke="none" fill="none"></path><g id="SvgjsG1182"><text id="SvgjsText1183" font-family="微软雅黑" text-anchor="middle" font-size="13px" width="180px" fill="#323232" font-weight="700" align="middle" lineHeight="125%" anchor="middle" family="微软雅黑" size="13px" weight="700" font-style="" opacity="1" y="5.375" transform="rotate(0)"><tspan id="SvgjsTspan1184" dy="16" x="100"><tspan id="SvgjsTspan1185" style="text-decoration:;">Logistics</tspan></tspan></text></g><g id="SvgjsG1186"><text id="SvgjsText1187" font-family="微软雅黑" text-anchor="start" font-size="13px" width="180px" fill="#323232" font-weight="400" align="middle" lineHeight="125%" anchor="start" family="微软雅黑" size="13px" weight="400" font-style="" opacity="1" y="35.375" transform="rotate(0)"><tspan id="SvgjsTspan1188" dy="16" x="10"><tspan id="SvgjsTspan1189" style="text-decoration:;"># transport Transport</tspan></tspan></text></g><g id="SvgjsG1190"><text id="SvgjsText1191" font-family="微软雅黑" text-anchor="start" font-size="13px" width="180px" fill="#323232" font-weight="400" align="middle" lineHeight="125%" anchor="start" family="微软雅黑" size="13px" weight="400" font-style="" opacity="1" y="58.375" transform="rotate(0)"><tspan id="SvgjsTspan1192" dy="16" x="10"><tspan id="SvgjsTspan1193" style="text-decoration:;">- createTransport():void</tspan></tspan><tspan id="SvgjsTspan1194" dy="16" x="10"><tspan id="SvgjsTspan1195" style="text-decoration:;">+ playDelivery():void</tspan></tspan></text></g></g><g id="SvgjsG1196" transform="translate(25,195)"><path id="SvgjsPath1197" d="M 0 4Q 0 0 4 0L 196 0Q 200 0 200 4L 200 86Q 200 90 196 90L 4 90Q 0 90 0 86Z" stroke="rgba(50,50,50,1)" stroke-width="2" fill-opacity="1" fill="#ffffff"></path><path id="SvgjsPath1198" d="M 0 30L 200 30M 0 60L 200 60" stroke="rgba(50,50,50,1)" stroke-width="2" fill="none"></path><path id="SvgjsPath1199" d="M 0 0L 200 0L 200 90L 0 90Z" stroke="none" fill="none"></path><g id="SvgjsG1200"><text id="SvgjsText1201" font-family="微软雅黑" text-anchor="middle" font-size="13px" width="180px" fill="#323232" font-weight="700" align="middle" lineHeight="125%" anchor="middle" family="微软雅黑" size="13px" weight="700" font-style="" opacity="1" y="5.375" transform="rotate(0)"><tspan id="SvgjsTspan1202" dy="16" x="100"><tspan id="SvgjsTspan1203" style="text-decoration:;">RoadLogistics</tspan></tspan></text></g><g id="SvgjsG1204"><text id="SvgjsText1205" font-family="微软雅黑" text-anchor="start" font-size="13px" width="180px" fill="#323232" font-weight="400" align="middle" lineHeight="125%" anchor="start" family="微软雅黑" size="13px" weight="400" font-style="" opacity="1" y="35.375" transform="rotate(0)"><tspan id="SvgjsTspan1206" dy="16" x="10"><tspan id="SvgjsTspan1207" style="text-decoration:;">...</tspan></tspan></text></g><g id="SvgjsG1208"><text id="SvgjsText1209" font-family="微软雅黑" text-anchor="start" font-size="13px" width="180px" fill="#323232" font-weight="400" align="middle" lineHeight="125%" anchor="start" family="微软雅黑" size="13px" weight="400" font-style="" opacity="1" y="65.375" transform="rotate(0)"><tspan id="SvgjsTspan1210" dy="16" x="10"><tspan id="SvgjsTspan1211" style="text-decoration:;">- createTransport():void</tspan></tspan></text></g></g><g id="SvgjsG1212" transform="translate(369,195)"><path id="SvgjsPath1213" d="M 0 4Q 0 0 4 0L 196 0Q 200 0 200 4L 200 86Q 200 90 196 90L 4 90Q 0 90 0 86Z" stroke="rgba(50,50,50,1)" stroke-width="2" fill-opacity="1" fill="#ffffff"></path><path id="SvgjsPath1214" d="M 0 30L 200 30M 0 60L 200 60" stroke="rgba(50,50,50,1)" stroke-width="2" fill="none"></path><path id="SvgjsPath1215" d="M 0 0L 200 0L 200 90L 0 90Z" stroke="none" fill="none"></path><g id="SvgjsG1216"><text id="SvgjsText1217" font-family="微软雅黑" text-anchor="middle" font-size="13px" width="180px" fill="#323232" font-weight="700" align="middle" lineHeight="125%" anchor="middle" family="微软雅黑" size="13px" weight="700" font-style="" opacity="1" y="5.375" transform="rotate(0)"><tspan id="SvgjsTspan1218" dy="16" x="100"><tspan id="SvgjsTspan1219" style="text-decoration:;">SeaLogistics</tspan></tspan></text></g><g id="SvgjsG1220"><text id="SvgjsText1221" font-family="微软雅黑" text-anchor="start" font-size="13px" width="180px" fill="#323232" font-weight="400" align="middle" lineHeight="125%" anchor="start" family="微软雅黑" size="13px" weight="400" font-style="" opacity="1" y="35.375" transform="rotate(0)"><tspan id="SvgjsTspan1222" dy="16" x="10"><tspan id="SvgjsTspan1223" style="text-decoration:;">...</tspan></tspan></text></g><g id="SvgjsG1224"><text id="SvgjsText1225" font-family="微软雅黑" text-anchor="start" font-size="13px" width="180px" fill="#323232" font-weight="400" align="middle" lineHeight="125%" anchor="start" family="微软雅黑" size="13px" weight="400" font-style="" opacity="1" y="65.375" transform="rotate(0)"><tspan id="SvgjsTspan1226" dy="16" x="10"><tspan id="SvgjsTspan1227" style="text-decoration:;">- createTransport():void</tspan></tspan></text></g></g><g id="SvgjsG1228"><path id="SvgjsPath1229" d="M125 195L125 160L297 160L297 125" stroke="#323232" stroke-width="2" fill="none" marker-end="url(#SvgjsMarker1230)"></path></g><g id="SvgjsG1232"><path id="SvgjsPath1233" d="M469 195L469 160L297 160L297 125" stroke="#323232" stroke-width="2" fill="none" marker-end="url(#SvgjsMarker1234)"></path></g></svg>